<mxfile host="app.diagrams.net" agent="Mozilla/5.0 (Windows NT 10.0; Win64; x64) AppleWebKit/537.36 (KHTML, like Gecko) Chrome/135.0.0.0 Safari/537.36" version="26.2.13">
  <diagram name="Trang-1" id="Sj79cyOfVJ__T9_NzDig">
    <mxGraphModel dx="1898" dy="1031" grid="0" gridSize="10" guides="1" tooltips="1" connect="1" arrows="1" fold="1" page="0" pageScale="1" pageWidth="827" pageHeight="1169" math="0" shadow="0">
      <root>
        <mxCell id="0" />
        <mxCell id="1" parent="0" />
        <mxCell id="2" value="Mobile App BÃ¡n Laptop" style="whiteSpace=wrap;strokeWidth=2;" parent="1" vertex="1">
          <mxGeometry x="1730" y="8" width="223" height="54" as="geometry" />
        </mxCell>
        <mxCell id="3" value="User Authentication" style="whiteSpace=wrap;strokeWidth=2;" parent="1" vertex="1">
          <mxGeometry x="108" y="112" width="202" height="54" as="geometry" />
        </mxCell>
        <mxCell id="4" value="Product Catalog" style="whiteSpace=wrap;strokeWidth=2;" parent="1" vertex="1">
          <mxGeometry x="791" y="90" width="174" height="54" as="geometry" />
        </mxCell>
        <mxCell id="5" value="Shopping Cart" style="whiteSpace=wrap;strokeWidth=2;" parent="1" vertex="1">
          <mxGeometry x="1447" y="112" width="160" height="54" as="geometry" />
        </mxCell>
        <mxCell id="6" value="Order Processing" style="whiteSpace=wrap;strokeWidth=2;" parent="1" vertex="1">
          <mxGeometry x="2067" y="112" width="180" height="54" as="geometry" />
        </mxCell>
        <mxCell id="7" value="User Profile Management" style="whiteSpace=wrap;strokeWidth=2;" parent="1" vertex="1">
          <mxGeometry x="2552" y="112" width="239" height="54" as="geometry" />
        </mxCell>
        <mxCell id="8" value="Search Functionality" style="whiteSpace=wrap;strokeWidth=2;" parent="1" vertex="1">
          <mxGeometry x="2950" y="112" width="207" height="54" as="geometry" />
        </mxCell>
        <mxCell id="9" value="Login" style="whiteSpace=wrap;strokeWidth=2;" parent="1" vertex="1">
          <mxGeometry x="8" y="216" width="98" height="54" as="geometry" />
        </mxCell>
        <mxCell id="10" value="Signup" style="whiteSpace=wrap;strokeWidth=2;" parent="1" vertex="1">
          <mxGeometry x="156" y="216" width="107" height="54" as="geometry" />
        </mxCell>
        <mxCell id="11" value="Password Recovery" style="whiteSpace=wrap;strokeWidth=2;" parent="1" vertex="1">
          <mxGeometry x="313" y="216" width="195" height="54" as="geometry" />
        </mxCell>
        <mxCell id="12" value="Category Filtering" style="whiteSpace=wrap;strokeWidth=2;" parent="1" vertex="1">
          <mxGeometry x="557" y="216" width="189" height="54" as="geometry" />
        </mxCell>
        <mxCell id="13" value="Product Details" style="whiteSpace=wrap;strokeWidth=2;" parent="1" vertex="1">
          <mxGeometry x="796" y="216" width="169" height="54" as="geometry" />
        </mxCell>
        <mxCell id="14" value="Reviews and Ratings" style="whiteSpace=wrap;strokeWidth=2;" parent="1" vertex="1">
          <mxGeometry x="1015" y="216" width="204" height="54" as="geometry" />
        </mxCell>
        <mxCell id="15" value="Add to Cart" style="whiteSpace=wrap;strokeWidth=2;" parent="1" vertex="1">
          <mxGeometry x="1269" y="216" width="142" height="54" as="geometry" />
        </mxCell>
        <mxCell id="16" value="View Cart" style="whiteSpace=wrap;strokeWidth=2;" parent="1" vertex="1">
          <mxGeometry x="1462" y="216" width="130" height="54" as="geometry" />
        </mxCell>
        <mxCell id="17" value="Checkout" style="whiteSpace=wrap;strokeWidth=2;" parent="1" vertex="1">
          <mxGeometry x="1641" y="216" width="127" height="54" as="geometry" />
        </mxCell>
        <mxCell id="18" value="Payment Gateway" style="whiteSpace=wrap;strokeWidth=2;" parent="1" vertex="1">
          <mxGeometry x="1818" y="216" width="189" height="54" as="geometry" />
        </mxCell>
        <mxCell id="19" value="Order Confirmation" style="whiteSpace=wrap;strokeWidth=2;" parent="1" vertex="1">
          <mxGeometry x="2057" y="216" width="199" height="54" as="geometry" />
        </mxCell>
        <mxCell id="20" value="Order History" style="whiteSpace=wrap;strokeWidth=2;" parent="1" vertex="1">
          <mxGeometry x="2306" y="216" width="156" height="54" as="geometry" />
        </mxCell>
        <mxCell id="21" value="Edit Profile" style="whiteSpace=wrap;strokeWidth=2;" parent="1" vertex="1">
          <mxGeometry x="2513" y="216" width="140" height="54" as="geometry" />
        </mxCell>
        <mxCell id="22" value="Wishlist" style="whiteSpace=wrap;strokeWidth=2;" parent="1" vertex="1">
          <mxGeometry x="2703" y="216" width="115" height="54" as="geometry" />
        </mxCell>
        <mxCell id="23" value="Search Bar" style="whiteSpace=wrap;strokeWidth=2;" parent="1" vertex="1">
          <mxGeometry x="2868" y="216" width="136" height="54" as="geometry" />
        </mxCell>
        <mxCell id="24" value="Advanced Search Filters" style="whiteSpace=wrap;strokeWidth=2;" parent="1" vertex="1">
          <mxGeometry x="3054" y="216" width="232" height="54" as="geometry" />
        </mxCell>
        <mxCell id="25" value="" style="curved=1;startArrow=none;endArrow=block;exitX=0;exitY=0.57;entryX=0.5;entryY=0;" parent="1" source="2" target="3" edge="1">
          <mxGeometry relative="1" as="geometry">
            <Array as="points">
              <mxPoint x="209" y="87" />
            </Array>
          </mxGeometry>
        </mxCell>
        <mxCell id="26" value="" style="curved=1;startArrow=none;endArrow=block;exitX=0;exitY=0.61;entryX=0.5;entryY=0;" parent="1" source="2" target="4" edge="1">
          <mxGeometry relative="1" as="geometry">
            <Array as="points">
              <mxPoint x="881" y="87" />
            </Array>
          </mxGeometry>
        </mxCell>
        <mxCell id="27" value="" style="curved=1;startArrow=none;endArrow=block;exitX=0;exitY=0.84;entryX=0.5;entryY=0;" parent="1" source="2" target="5" edge="1">
          <mxGeometry relative="1" as="geometry">
            <Array as="points">
              <mxPoint x="1527" y="87" />
            </Array>
          </mxGeometry>
        </mxCell>
        <mxCell id="28" value="" style="curved=1;startArrow=none;endArrow=block;exitX=1;exitY=0.84;entryX=0.5;entryY=0;" parent="1" source="2" target="6" edge="1">
          <mxGeometry relative="1" as="geometry">
            <Array as="points">
              <mxPoint x="2157" y="87" />
            </Array>
          </mxGeometry>
        </mxCell>
        <mxCell id="29" value="" style="curved=1;startArrow=none;endArrow=block;exitX=1;exitY=0.63;entryX=0.5;entryY=0;" parent="1" source="2" target="7" edge="1">
          <mxGeometry relative="1" as="geometry">
            <Array as="points">
              <mxPoint x="2671" y="87" />
            </Array>
          </mxGeometry>
        </mxCell>
        <mxCell id="30" value="" style="curved=1;startArrow=none;endArrow=block;exitX=1;exitY=0.59;entryX=0.5;entryY=0;" parent="1" source="2" target="8" edge="1">
          <mxGeometry relative="1" as="geometry">
            <Array as="points">
              <mxPoint x="3053" y="87" />
            </Array>
          </mxGeometry>
        </mxCell>
        <mxCell id="31" value="" style="curved=1;startArrow=none;endArrow=block;exitX=0.11;exitY=1;entryX=0.5;entryY=0;" parent="1" source="3" target="9" edge="1">
          <mxGeometry relative="1" as="geometry">
            <Array as="points">
              <mxPoint x="57" y="191" />
            </Array>
          </mxGeometry>
        </mxCell>
        <mxCell id="32" value="" style="curved=1;startArrow=none;endArrow=block;exitX=0.5;exitY=1;entryX=0.5;entryY=0;" parent="1" source="3" target="10" edge="1">
          <mxGeometry relative="1" as="geometry">
            <Array as="points" />
          </mxGeometry>
        </mxCell>
        <mxCell id="33" value="" style="curved=1;startArrow=none;endArrow=block;exitX=1;exitY=0.98;entryX=0.5;entryY=0;" parent="1" source="3" target="11" edge="1">
          <mxGeometry relative="1" as="geometry">
            <Array as="points">
              <mxPoint x="410" y="191" />
            </Array>
          </mxGeometry>
        </mxCell>
        <mxCell id="34" value="" style="curved=1;startArrow=none;endArrow=block;exitX=0;exitY=0.87;entryX=0.5;entryY=0;" parent="1" source="4" target="12" edge="1">
          <mxGeometry relative="1" as="geometry">
            <Array as="points">
              <mxPoint x="652" y="191" />
            </Array>
          </mxGeometry>
        </mxCell>
        <mxCell id="35" value="" style="curved=1;startArrow=none;endArrow=block;exitX=0.5;exitY=1;entryX=0.5;entryY=0;" parent="1" source="4" target="13" edge="1">
          <mxGeometry relative="1" as="geometry">
            <Array as="points" />
          </mxGeometry>
        </mxCell>
        <mxCell id="36" value="" style="curved=1;startArrow=none;endArrow=block;exitX=1;exitY=0.85;entryX=0.5;entryY=0;" parent="1" source="4" target="14" edge="1">
          <mxGeometry relative="1" as="geometry">
            <Array as="points">
              <mxPoint x="1117" y="191" />
            </Array>
          </mxGeometry>
        </mxCell>
        <mxCell id="37" value="" style="curved=1;startArrow=none;endArrow=block;exitX=0;exitY=0.91;entryX=0.5;entryY=0;" parent="1" source="5" target="15" edge="1">
          <mxGeometry relative="1" as="geometry">
            <Array as="points">
              <mxPoint x="1341" y="191" />
            </Array>
          </mxGeometry>
        </mxCell>
        <mxCell id="38" value="" style="curved=1;startArrow=none;endArrow=block;exitX=0.5;exitY=1;entryX=0.5;entryY=0;" parent="1" source="5" target="16" edge="1">
          <mxGeometry relative="1" as="geometry">
            <Array as="points" />
          </mxGeometry>
        </mxCell>
        <mxCell id="39" value="" style="curved=1;startArrow=none;endArrow=block;exitX=1;exitY=0.93;entryX=0.5;entryY=0;" parent="1" source="5" target="17" edge="1">
          <mxGeometry relative="1" as="geometry">
            <Array as="points">
              <mxPoint x="1705" y="191" />
            </Array>
          </mxGeometry>
        </mxCell>
        <mxCell id="40" value="" style="curved=1;startArrow=none;endArrow=block;exitX=0;exitY=0.85;entryX=0.5;entryY=0;" parent="1" source="6" target="18" edge="1">
          <mxGeometry relative="1" as="geometry">
            <Array as="points">
              <mxPoint x="1913" y="191" />
            </Array>
          </mxGeometry>
        </mxCell>
        <mxCell id="41" value="" style="curved=1;startArrow=none;endArrow=block;exitX=0.5;exitY=1;entryX=0.5;entryY=0;" parent="1" source="6" target="19" edge="1">
          <mxGeometry relative="1" as="geometry">
            <Array as="points" />
          </mxGeometry>
        </mxCell>
        <mxCell id="42" value="" style="curved=1;startArrow=none;endArrow=block;exitX=1;exitY=0.88;entryX=0.5;entryY=0;" parent="1" source="6" target="20" edge="1">
          <mxGeometry relative="1" as="geometry">
            <Array as="points">
              <mxPoint x="2384" y="191" />
            </Array>
          </mxGeometry>
        </mxCell>
        <mxCell id="43" value="" style="curved=1;startArrow=none;endArrow=block;exitX=0.31;exitY=1;entryX=0.5;entryY=0;" parent="1" source="7" target="21" edge="1">
          <mxGeometry relative="1" as="geometry">
            <Array as="points">
              <mxPoint x="2583" y="191" />
            </Array>
          </mxGeometry>
        </mxCell>
        <mxCell id="44" value="" style="curved=1;startArrow=none;endArrow=block;exitX=0.69;exitY=1;entryX=0.5;entryY=0;" parent="1" source="7" target="22" edge="1">
          <mxGeometry relative="1" as="geometry">
            <Array as="points">
              <mxPoint x="2760" y="191" />
            </Array>
          </mxGeometry>
        </mxCell>
        <mxCell id="45" value="" style="curved=1;startArrow=none;endArrow=block;exitX=0.2;exitY=1;entryX=0.5;entryY=0;" parent="1" source="8" target="23" edge="1">
          <mxGeometry relative="1" as="geometry">
            <Array as="points">
              <mxPoint x="2936" y="191" />
            </Array>
          </mxGeometry>
        </mxCell>
        <mxCell id="46" value="" style="curved=1;startArrow=none;endArrow=block;exitX=0.79;exitY=1;entryX=0.5;entryY=0;" parent="1" source="8" target="24" edge="1">
          <mxGeometry relative="1" as="geometry">
            <Array as="points">
              <mxPoint x="3170" y="191" />
            </Array>
          </mxGeometry>
        </mxCell>
        <mxCell id="138oghYN7yinBcC0jpWZ-55" style="edgeStyle=orthogonalEdgeStyle;rounded=0;orthogonalLoop=1;jettySize=auto;html=1;exitX=0.5;exitY=0.5;exitDx=0;exitDy=0;exitPerimeter=0;fontSize=18;fillColor=#dae8fc;strokeColor=#6c8ebf;" edge="1" parent="1" source="138oghYN7yinBcC0jpWZ-46" target="138oghYN7yinBcC0jpWZ-47">
          <mxGeometry relative="1" as="geometry" />
        </mxCell>
        <mxCell id="138oghYN7yinBcC0jpWZ-46" value="KhÃ¡ch hÃ ng / ngÆ°á»i dÃ¹ng" style="shape=umlActor;verticalLabelPosition=bottom;verticalAlign=top;html=1;outlineConnect=0;fontSize=18;fillColor=#dae8fc;strokeColor=#6c8ebf;" vertex="1" parent="1">
          <mxGeometry x="213" y="606" width="30" height="60" as="geometry" />
        </mxCell>
        <mxCell id="138oghYN7yinBcC0jpWZ-47" value="ÄÄng nháº­p" style="ellipse;whiteSpace=wrap;html=1;fontSize=18;fillColor=#dae8fc;strokeColor=#6c8ebf;" vertex="1" parent="1">
          <mxGeometry x="781" y="701" width="206" height="81" as="geometry" />
        </mxCell>
        <mxCell id="138oghYN7yinBcC0jpWZ-48" value="QuÃªn máº­t kháº©u" style="ellipse;whiteSpace=wrap;html=1;fontSize=18;fillColor=#dae8fc;strokeColor=#6c8ebf;" vertex="1" parent="1">
          <mxGeometry x="397" y="500" width="206" height="81" as="geometry" />
        </mxCell>
        <mxCell id="138oghYN7yinBcC0jpWZ-49" value="ÄÄng xuáº¥t" style="ellipse;whiteSpace=wrap;html=1;fontSize=18;fillColor=#dae8fc;strokeColor=#6c8ebf;" vertex="1" parent="1">
          <mxGeometry x="389" y="847" width="206" height="81" as="geometry" />
        </mxCell>
        <mxCell id="138oghYN7yinBcC0jpWZ-50" value="ÄÄng kÃ½" style="ellipse;whiteSpace=wrap;html=1;fontSize=18;fillColor=#dae8fc;strokeColor=#6c8ebf;" vertex="1" parent="1">
          <mxGeometry x="389" y="676" width="206" height="81" as="geometry" />
        </mxCell>
        <mxCell id="138oghYN7yinBcC0jpWZ-51" value="&amp;lt;&amp;lt;include&amp;gt;&amp;gt;" style="html=1;verticalAlign=bottom;labelBackgroundColor=none;endArrow=open;endFill=0;dashed=1;rounded=0;exitX=0;exitY=0.5;exitDx=0;exitDy=0;fontSize=18;fillColor=#dae8fc;strokeColor=#6c8ebf;" edge="1" parent="1" source="138oghYN7yinBcC0jpWZ-47" target="138oghYN7yinBcC0jpWZ-50">
          <mxGeometry width="160" relative="1" as="geometry">
            <mxPoint x="625" y="685" as="sourcePoint" />
            <mxPoint x="785" y="685" as="targetPoint" />
          </mxGeometry>
        </mxCell>
        <mxCell id="138oghYN7yinBcC0jpWZ-52" value="&amp;lt;&amp;lt;extend&amp;gt;&amp;gt;" style="html=1;verticalAlign=bottom;labelBackgroundColor=none;endArrow=open;endFill=0;dashed=1;rounded=0;exitX=0.5;exitY=0;exitDx=0;exitDy=0;fontSize=18;fillColor=#dae8fc;strokeColor=#6c8ebf;" edge="1" parent="1" source="138oghYN7yinBcC0jpWZ-49" target="138oghYN7yinBcC0jpWZ-50">
          <mxGeometry width="160" relative="1" as="geometry">
            <mxPoint x="625" y="690" as="sourcePoint" />
            <mxPoint x="785" y="690" as="targetPoint" />
          </mxGeometry>
        </mxCell>
        <mxCell id="138oghYN7yinBcC0jpWZ-54" value="&amp;lt;&amp;lt;extend&amp;gt;&amp;gt;" style="html=1;verticalAlign=bottom;labelBackgroundColor=none;endArrow=open;endFill=0;dashed=1;rounded=0;fontSize=18;fillColor=#dae8fc;strokeColor=#6c8ebf;" edge="1" parent="1" source="138oghYN7yinBcC0jpWZ-48" target="138oghYN7yinBcC0jpWZ-50">
          <mxGeometry width="160" relative="1" as="geometry">
            <mxPoint x="645" y="710" as="sourcePoint" />
            <mxPoint x="805" y="710" as="targetPoint" />
          </mxGeometry>
        </mxCell>
        <mxCell id="138oghYN7yinBcC0jpWZ-57" value="" style="endArrow=classic;html=1;rounded=0;fontSize=18;fillColor=#dae8fc;strokeColor=#6c8ebf;" edge="1" parent="1" target="138oghYN7yinBcC0jpWZ-48">
          <mxGeometry width="50" height="50" relative="1" as="geometry">
            <mxPoint x="236" y="634" as="sourcePoint" />
            <mxPoint x="545" y="660" as="targetPoint" />
          </mxGeometry>
        </mxCell>
        <mxCell id="138oghYN7yinBcC0jpWZ-58" value="" style="endArrow=classic;html=1;rounded=0;fontSize=18;fillColor=#dae8fc;strokeColor=#6c8ebf;" edge="1" parent="1" source="138oghYN7yinBcC0jpWZ-46" target="138oghYN7yinBcC0jpWZ-50">
          <mxGeometry width="50" height="50" relative="1" as="geometry">
            <mxPoint x="246" y="644" as="sourcePoint" />
            <mxPoint x="433" y="578" as="targetPoint" />
          </mxGeometry>
        </mxCell>
        <mxCell id="138oghYN7yinBcC0jpWZ-59" value="" style="endArrow=classic;html=1;rounded=0;entryX=0.034;entryY=0.327;entryDx=0;entryDy=0;entryPerimeter=0;fontSize=18;fillColor=#dae8fc;strokeColor=#6c8ebf;" edge="1" parent="1" source="138oghYN7yinBcC0jpWZ-46" target="138oghYN7yinBcC0jpWZ-49">
          <mxGeometry width="50" height="50" relative="1" as="geometry">
            <mxPoint x="256" y="654" as="sourcePoint" />
            <mxPoint x="443" y="588" as="targetPoint" />
          </mxGeometry>
        </mxCell>
        <mxCell id="138oghYN7yinBcC0jpWZ-61" value="Kiá»m tra tÃ i khoáº£n" style="ellipse;whiteSpace=wrap;html=1;fontSize=18;fillColor=#dae8fc;strokeColor=#6c8ebf;" vertex="1" parent="1">
          <mxGeometry x="1035" y="439" width="206" height="97" as="geometry" />
        </mxCell>
        <mxCell id="138oghYN7yinBcC0jpWZ-62" value="Thanh toÃ¡n" style="ellipse;whiteSpace=wrap;html=1;fontSize=18;fillColor=#dae8fc;strokeColor=#6c8ebf;" vertex="1" parent="1">
          <mxGeometry x="880" y="954" width="206" height="81" as="geometry" />
        </mxCell>
        <mxCell id="138oghYN7yinBcC0jpWZ-63" value="Xem giá» hÃ ng" style="ellipse;whiteSpace=wrap;html=1;fontSize=18;fillColor=#dae8fc;strokeColor=#6c8ebf;" vertex="1" parent="1">
          <mxGeometry x="648" y="934" width="206" height="81" as="geometry" />
        </mxCell>
        <mxCell id="138oghYN7yinBcC0jpWZ-64" value="TÃ¬m kiáº¿m&amp;nbsp;" style="ellipse;whiteSpace=wrap;html=1;fontSize=18;fillColor=#dae8fc;strokeColor=#6c8ebf;" vertex="1" parent="1">
          <mxGeometry x="611" y="374" width="206" height="81" as="geometry" />
        </mxCell>
        <mxCell id="138oghYN7yinBcC0jpWZ-65" value="Xem danh sÃ¡ch sáº£n pháº©m" style="ellipse;whiteSpace=wrap;html=1;fontSize=18;fillColor=#dae8fc;strokeColor=#6c8ebf;" vertex="1" parent="1">
          <mxGeometry x="884" y="370" width="206" height="81" as="geometry" />
        </mxCell>
        <mxCell id="138oghYN7yinBcC0jpWZ-66" value="&amp;lt;&amp;lt;include&amp;gt;&amp;gt;" style="html=1;verticalAlign=bottom;labelBackgroundColor=none;endArrow=open;endFill=0;dashed=1;rounded=0;exitX=0.55;exitY=0.957;exitDx=0;exitDy=0;exitPerimeter=0;fontSize=18;fillColor=#dae8fc;strokeColor=#6c8ebf;" edge="1" parent="1" source="138oghYN7yinBcC0jpWZ-64" target="138oghYN7yinBcC0jpWZ-47">
          <mxGeometry width="160" relative="1" as="geometry">
            <mxPoint x="712" y="647" as="sourcePoint" />
            <mxPoint x="872" y="647" as="targetPoint" />
          </mxGeometry>
        </mxCell>
        <mxCell id="138oghYN7yinBcC0jpWZ-67" value="&amp;lt;&amp;lt;include&amp;gt;&amp;gt;" style="html=1;verticalAlign=bottom;labelBackgroundColor=none;endArrow=open;endFill=0;dashed=1;rounded=0;entryX=0.817;entryY=0.89;entryDx=0;entryDy=0;entryPerimeter=0;fontSize=18;fillColor=#dae8fc;strokeColor=#6c8ebf;" edge="1" parent="1" source="138oghYN7yinBcC0jpWZ-62" target="138oghYN7yinBcC0jpWZ-47">
          <mxGeometry width="160" relative="1" as="geometry">
            <mxPoint x="869" y="548" as="sourcePoint" />
            <mxPoint x="852" y="686" as="targetPoint" />
          </mxGeometry>
        </mxCell>
        <mxCell id="138oghYN7yinBcC0jpWZ-68" value="&amp;lt;&amp;lt;include&amp;gt;&amp;gt;" style="html=1;verticalAlign=bottom;labelBackgroundColor=none;endArrow=open;endFill=0;dashed=1;rounded=0;entryX=0.968;entryY=0.401;entryDx=0;entryDy=0;entryPerimeter=0;fontSize=18;fillColor=#dae8fc;strokeColor=#6c8ebf;" edge="1" parent="1" source="138oghYN7yinBcC0jpWZ-61" target="138oghYN7yinBcC0jpWZ-47">
          <mxGeometry width="160" relative="1" as="geometry">
            <mxPoint x="879" y="558" as="sourcePoint" />
            <mxPoint x="862" y="696" as="targetPoint" />
          </mxGeometry>
        </mxCell>
        <mxCell id="138oghYN7yinBcC0jpWZ-69" value="&amp;lt;&amp;lt;include&amp;gt;&amp;gt;" style="html=1;verticalAlign=bottom;labelBackgroundColor=none;endArrow=open;endFill=0;dashed=1;rounded=0;exitX=0.099;exitY=0.739;exitDx=0;exitDy=0;exitPerimeter=0;fontSize=18;fillColor=#dae8fc;strokeColor=#6c8ebf;" edge="1" parent="1" source="138oghYN7yinBcC0jpWZ-65" target="138oghYN7yinBcC0jpWZ-47">
          <mxGeometry width="160" relative="1" as="geometry">
            <mxPoint x="889" y="568" as="sourcePoint" />
            <mxPoint x="872" y="706" as="targetPoint" />
          </mxGeometry>
        </mxCell>
        <mxCell id="138oghYN7yinBcC0jpWZ-70" value="&amp;lt;&amp;lt;include&amp;gt;&amp;gt;" style="html=1;verticalAlign=bottom;labelBackgroundColor=none;endArrow=open;endFill=0;dashed=1;rounded=0;exitX=0.5;exitY=0;exitDx=0;exitDy=0;fontSize=18;fillColor=#dae8fc;strokeColor=#6c8ebf;" edge="1" parent="1" source="138oghYN7yinBcC0jpWZ-63" target="138oghYN7yinBcC0jpWZ-47">
          <mxGeometry width="160" relative="1" as="geometry">
            <mxPoint x="869" y="548" as="sourcePoint" />
            <mxPoint x="837" y="763" as="targetPoint" />
          </mxGeometry>
        </mxCell>
        <mxCell id="138oghYN7yinBcC0jpWZ-71" value="Quáº£n trá» viÃªn" style="shape=umlActor;verticalLabelPosition=bottom;verticalAlign=top;html=1;outlineConnect=0;fontSize=18;" vertex="1" parent="1">
          <mxGeometry x="1761" y="690" width="30" height="60" as="geometry" />
        </mxCell>
        <mxCell id="138oghYN7yinBcC0jpWZ-73" value="Quáº£n lÃ½ thanh toÃ¡n" style="ellipse;whiteSpace=wrap;html=1;fontSize=18;fillColor=#dae8fc;strokeColor=#6c8ebf;" vertex="1" parent="1">
          <mxGeometry x="1499" y="445" width="280" height="103" as="geometry" />
        </mxCell>
        <mxCell id="138oghYN7yinBcC0jpWZ-75" value="Quáº£n lÃ½ danh sÃ¡ch sáº£n pháº©m" style="ellipse;whiteSpace=wrap;html=1;fontSize=18;fillColor=#dae8fc;strokeColor=#6c8ebf;" vertex="1" parent="1">
          <mxGeometry x="1305" y="558" width="277" height="106" as="geometry" />
        </mxCell>
        <mxCell id="138oghYN7yinBcC0jpWZ-76" value="Quáº£n lÃ½ thanh toÃ¡n" style="ellipse;whiteSpace=wrap;html=1;fontSize=18;fillColor=#dae8fc;strokeColor=#6c8ebf;" vertex="1" parent="1">
          <mxGeometry x="1308" y="847" width="206" height="81" as="geometry" />
        </mxCell>
        <mxCell id="138oghYN7yinBcC0jpWZ-77" value="Quáº£n lÃ½ tÃ i khoáº£n ngÆ°á»i dÃ¹ng" style="ellipse;whiteSpace=wrap;html=1;fontSize=18;fillColor=#dae8fc;strokeColor=#6c8ebf;" vertex="1" parent="1">
          <mxGeometry x="1174" y="1022" width="298" height="86" as="geometry" />
        </mxCell>
        <mxCell id="138oghYN7yinBcC0jpWZ-78" value="Quáº£n lÃ½ giá» hÃ ng" style="ellipse;whiteSpace=wrap;html=1;fontSize=18;fillColor=#dae8fc;strokeColor=#6c8ebf;" vertex="1" parent="1">
          <mxGeometry x="1482" y="1020" width="206" height="81" as="geometry" />
        </mxCell>
        <mxCell id="138oghYN7yinBcC0jpWZ-79" value="" style="endArrow=classic;html=1;rounded=0;fontSize=18;" edge="1" parent="1" source="138oghYN7yinBcC0jpWZ-71" target="138oghYN7yinBcC0jpWZ-73">
          <mxGeometry width="50" height="50" relative="1" as="geometry">
            <mxPoint x="1207" y="801" as="sourcePoint" />
            <mxPoint x="1257" y="751" as="targetPoint" />
          </mxGeometry>
        </mxCell>
        <mxCell id="138oghYN7yinBcC0jpWZ-80" value="" style="endArrow=classic;html=1;rounded=0;fontSize=18;" edge="1" parent="1" source="138oghYN7yinBcC0jpWZ-71" target="138oghYN7yinBcC0jpWZ-75">
          <mxGeometry width="50" height="50" relative="1" as="geometry">
            <mxPoint x="1923" y="710" as="sourcePoint" />
            <mxPoint x="1267" y="761" as="targetPoint" />
          </mxGeometry>
        </mxCell>
        <mxCell id="138oghYN7yinBcC0jpWZ-82" value="" style="endArrow=classic;html=1;rounded=0;fontSize=18;" edge="1" parent="1" source="138oghYN7yinBcC0jpWZ-71" target="138oghYN7yinBcC0jpWZ-76">
          <mxGeometry width="50" height="50" relative="1" as="geometry">
            <mxPoint x="1943" y="730" as="sourcePoint" />
            <mxPoint x="1287" y="781" as="targetPoint" />
          </mxGeometry>
        </mxCell>
        <mxCell id="138oghYN7yinBcC0jpWZ-83" value="" style="endArrow=classic;html=1;rounded=0;fontSize=18;" edge="1" parent="1" source="138oghYN7yinBcC0jpWZ-71" target="138oghYN7yinBcC0jpWZ-78">
          <mxGeometry width="50" height="50" relative="1" as="geometry">
            <mxPoint x="1943" y="730" as="sourcePoint" />
            <mxPoint x="1287" y="781" as="targetPoint" />
          </mxGeometry>
        </mxCell>
        <mxCell id="138oghYN7yinBcC0jpWZ-84" value="" style="endArrow=classic;html=1;rounded=0;entryX=0.329;entryY=0.101;entryDx=0;entryDy=0;entryPerimeter=0;fontSize=18;" edge="1" parent="1" source="138oghYN7yinBcC0jpWZ-71" target="138oghYN7yinBcC0jpWZ-77">
          <mxGeometry width="50" height="50" relative="1" as="geometry">
            <mxPoint x="1953" y="740" as="sourcePoint" />
            <mxPoint x="1297" y="791" as="targetPoint" />
            <Array as="points">
              <mxPoint x="1634" y="912" />
            </Array>
          </mxGeometry>
        </mxCell>
        <mxCell id="138oghYN7yinBcC0jpWZ-85" value="" style="endArrow=classic;html=1;rounded=0;entryX=1;entryY=0.5;entryDx=0;entryDy=0;fontSize=18;" edge="1" parent="1" target="138oghYN7yinBcC0jpWZ-47">
          <mxGeometry width="50" height="50" relative="1" as="geometry">
            <mxPoint x="1771" y="719" as="sourcePoint" />
            <mxPoint x="1420" y="906" as="targetPoint" />
          </mxGeometry>
        </mxCell>
        <mxCell id="138oghYN7yinBcC0jpWZ-87" value="&amp;lt;&amp;lt;include&amp;gt;&amp;gt;" style="html=1;verticalAlign=bottom;labelBackgroundColor=none;endArrow=open;endFill=0;dashed=1;rounded=0;fontSize=18;fillColor=#dae8fc;strokeColor=#6c8ebf;" edge="1" parent="1" source="138oghYN7yinBcC0jpWZ-78" target="138oghYN7yinBcC0jpWZ-47">
          <mxGeometry width="160" relative="1" as="geometry">
            <mxPoint x="1128" y="554" as="sourcePoint" />
            <mxPoint x="1000" y="753" as="targetPoint" />
          </mxGeometry>
        </mxCell>
        <mxCell id="138oghYN7yinBcC0jpWZ-88" value="&amp;lt;&amp;lt;include&amp;gt;&amp;gt;" style="html=1;verticalAlign=bottom;labelBackgroundColor=none;endArrow=open;endFill=0;dashed=1;rounded=0;fontSize=18;fillColor=#dae8fc;strokeColor=#6c8ebf;" edge="1" parent="1" source="138oghYN7yinBcC0jpWZ-76" target="138oghYN7yinBcC0jpWZ-47">
          <mxGeometry width="160" relative="1" as="geometry">
            <mxPoint x="1138" y="564" as="sourcePoint" />
            <mxPoint x="1010" y="763" as="targetPoint" />
          </mxGeometry>
        </mxCell>
        <mxCell id="138oghYN7yinBcC0jpWZ-89" value="&amp;lt;&amp;lt;include&amp;gt;&amp;gt;" style="html=1;verticalAlign=bottom;labelBackgroundColor=none;endArrow=open;endFill=0;dashed=1;rounded=0;fontSize=18;fillColor=#dae8fc;strokeColor=#6c8ebf;" edge="1" parent="1" source="138oghYN7yinBcC0jpWZ-77" target="138oghYN7yinBcC0jpWZ-47">
          <mxGeometry width="160" relative="1" as="geometry">
            <mxPoint x="1148" y="574" as="sourcePoint" />
            <mxPoint x="1020" y="773" as="targetPoint" />
          </mxGeometry>
        </mxCell>
        <mxCell id="138oghYN7yinBcC0jpWZ-90" value="&amp;lt;&amp;lt;include&amp;gt;&amp;gt;" style="html=1;verticalAlign=bottom;labelBackgroundColor=none;endArrow=open;endFill=0;dashed=1;rounded=0;entryX=1;entryY=0.5;entryDx=0;entryDy=0;fontSize=18;fillColor=#dae8fc;strokeColor=#6c8ebf;" edge="1" parent="1" source="138oghYN7yinBcC0jpWZ-73" target="138oghYN7yinBcC0jpWZ-47">
          <mxGeometry width="160" relative="1" as="geometry">
            <mxPoint x="1158" y="584" as="sourcePoint" />
            <mxPoint x="1030" y="783" as="targetPoint" />
            <Array as="points">
              <mxPoint x="1238" y="581" />
            </Array>
          </mxGeometry>
        </mxCell>
        <mxCell id="138oghYN7yinBcC0jpWZ-91" value="&amp;lt;&amp;lt;include&amp;gt;&amp;gt;" style="html=1;verticalAlign=bottom;labelBackgroundColor=none;endArrow=open;endFill=0;dashed=1;rounded=0;entryX=0.944;entryY=0.689;entryDx=0;entryDy=0;entryPerimeter=0;fontSize=18;fillColor=#dae8fc;strokeColor=#6c8ebf;exitX=0.058;exitY=0.728;exitDx=0;exitDy=0;exitPerimeter=0;" edge="1" parent="1" source="138oghYN7yinBcC0jpWZ-75" target="138oghYN7yinBcC0jpWZ-47">
          <mxGeometry width="160" relative="1" as="geometry">
            <mxPoint x="1168" y="594" as="sourcePoint" />
            <mxPoint x="1040" y="793" as="targetPoint" />
          </mxGeometry>
        </mxCell>
        <mxCell id="138oghYN7yinBcC0jpWZ-92" style="edgeStyle=orthogonalEdgeStyle;rounded=0;orthogonalLoop=1;jettySize=auto;html=1;exitX=0.5;exitY=0.5;exitDx=0;exitDy=0;exitPerimeter=0;fontSize=18;fillColor=#dae8fc;strokeColor=#6c8ebf;" edge="1" parent="1" source="138oghYN7yinBcC0jpWZ-93" target="138oghYN7yinBcC0jpWZ-94">
          <mxGeometry relative="1" as="geometry" />
        </mxCell>
        <mxCell id="138oghYN7yinBcC0jpWZ-93" value="KhÃ¡ch hÃ ng / ngÆ°á»i dÃ¹ng" style="shape=umlActor;verticalLabelPosition=bottom;verticalAlign=top;html=1;outlineConnect=0;fontSize=18;fillColor=#dae8fc;strokeColor=#6c8ebf;" vertex="1" parent="1">
          <mxGeometry x="564" y="2022" width="30" height="60" as="geometry" />
        </mxCell>
        <mxCell id="138oghYN7yinBcC0jpWZ-94" value="ÄÄng nháº­p" style="ellipse;whiteSpace=wrap;html=1;fontSize=18;fillColor=#dae8fc;strokeColor=#6c8ebf;" vertex="1" parent="1">
          <mxGeometry x="788" y="2018" width="206" height="81" as="geometry" />
        </mxCell>
        <mxCell id="138oghYN7yinBcC0jpWZ-99" value="&amp;lt;&amp;lt;extend&amp;gt;&amp;gt;" style="html=1;verticalAlign=bottom;labelBackgroundColor=none;endArrow=open;endFill=0;dashed=1;rounded=0;exitX=0.5;exitY=0;exitDx=0;exitDy=0;fontSize=18;fillColor=#dae8fc;strokeColor=#6c8ebf;" edge="1" parent="1" target="138oghYN7yinBcC0jpWZ-97">
          <mxGeometry width="160" relative="1" as="geometry">
            <mxPoint x="843" y="2263" as="sourcePoint" />
            <mxPoint x="1136" y="2106" as="targetPoint" />
          </mxGeometry>
        </mxCell>
        <mxCell id="138oghYN7yinBcC0jpWZ-100" value="&amp;lt;&amp;lt;extend&amp;gt;&amp;gt;" style="html=1;verticalAlign=bottom;labelBackgroundColor=none;endArrow=open;endFill=0;dashed=1;rounded=0;fontSize=18;fillColor=#dae8fc;strokeColor=#6c8ebf;" edge="1" parent="1" target="138oghYN7yinBcC0jpWZ-97">
          <mxGeometry width="160" relative="1" as="geometry">
            <mxPoint x="849.1868481594684" y="1996.9937244385364" as="sourcePoint" />
            <mxPoint x="1156" y="2126" as="targetPoint" />
          </mxGeometry>
        </mxCell>
        <mxCell id="138oghYN7yinBcC0jpWZ-104" value="Kiá»m tra tÃ i khoáº£n" style="ellipse;whiteSpace=wrap;html=1;fontSize=18;fillColor=#dae8fc;strokeColor=#6c8ebf;" vertex="1" parent="1">
          <mxGeometry x="1494" y="1450" width="206" height="97" as="geometry" />
        </mxCell>
        <mxCell id="138oghYN7yinBcC0jpWZ-106" value="Xem sáº£n pháº©m" style="ellipse;whiteSpace=wrap;html=1;fontSize=18;fillColor=#dae8fc;strokeColor=#6c8ebf;" vertex="1" parent="1">
          <mxGeometry x="784" y="2197" width="206" height="81" as="geometry" />
        </mxCell>
        <mxCell id="138oghYN7yinBcC0jpWZ-107" value="TÃ¬m kiáº¿m&amp;nbsp;" style="ellipse;whiteSpace=wrap;html=1;fontSize=18;fillColor=#dae8fc;strokeColor=#6c8ebf;" vertex="1" parent="1">
          <mxGeometry x="937" y="1442" width="206" height="81" as="geometry" />
        </mxCell>
        <mxCell id="138oghYN7yinBcC0jpWZ-108" value="Xem danh sÃ¡ch sáº£n pháº©m" style="ellipse;whiteSpace=wrap;html=1;fontSize=18;fillColor=#dae8fc;strokeColor=#6c8ebf;" vertex="1" parent="1">
          <mxGeometry x="1260" y="1393" width="206" height="81" as="geometry" />
        </mxCell>
        <mxCell id="138oghYN7yinBcC0jpWZ-113" value="&amp;lt;&amp;lt;include&amp;gt;&amp;gt;" style="html=1;verticalAlign=bottom;labelBackgroundColor=none;endArrow=open;endFill=0;dashed=1;rounded=0;exitX=0.5;exitY=0;exitDx=0;exitDy=0;fontSize=18;fillColor=#dae8fc;strokeColor=#6c8ebf;" edge="1" parent="1" source="138oghYN7yinBcC0jpWZ-106" target="138oghYN7yinBcC0jpWZ-94">
          <mxGeometry width="160" relative="1" as="geometry">
            <mxPoint x="1220" y="1964" as="sourcePoint" />
            <mxPoint x="1188" y="2179" as="targetPoint" />
          </mxGeometry>
        </mxCell>
        <mxCell id="138oghYN7yinBcC0jpWZ-114" value="Quáº£n trá» viÃªn" style="shape=umlActor;verticalLabelPosition=bottom;verticalAlign=top;html=1;outlineConnect=0;fontSize=18;" vertex="1" parent="1">
          <mxGeometry x="2588" y="2200" width="30" height="60" as="geometry" />
        </mxCell>
        <mxCell id="138oghYN7yinBcC0jpWZ-116" value="Quáº£n lÃ½ giá» hÃ ng" style="ellipse;whiteSpace=wrap;html=1;fontSize=18;fillColor=#dae8fc;strokeColor=#6c8ebf;" vertex="1" parent="1">
          <mxGeometry x="2002" y="2172" width="277" height="106" as="geometry" />
        </mxCell>
        <mxCell id="138oghYN7yinBcC0jpWZ-121" value="" style="endArrow=classic;html=1;rounded=0;fontSize=18;" edge="1" parent="1" source="138oghYN7yinBcC0jpWZ-114" target="138oghYN7yinBcC0jpWZ-116">
          <mxGeometry width="50" height="50" relative="1" as="geometry">
            <mxPoint x="3062.98" y="2202" as="sourcePoint" />
            <mxPoint x="2406.98" y="2253" as="targetPoint" />
          </mxGeometry>
        </mxCell>
        <mxCell id="138oghYN7yinBcC0jpWZ-131" value="Huá»· thanh toÃ¡n" style="ellipse;whiteSpace=wrap;html=1;fontSize=18;fillColor=#dae8fc;strokeColor=#6c8ebf;" vertex="1" parent="1">
          <mxGeometry x="910" y="2385" width="206" height="81" as="geometry" />
        </mxCell>
        <mxCell id="138oghYN7yinBcC0jpWZ-132" value="Xem theo&amp;nbsp;" style="ellipse;whiteSpace=wrap;html=1;fontSize=18;fillColor=#dae8fc;strokeColor=#6c8ebf;" vertex="1" parent="1">
          <mxGeometry x="590" y="2381" width="206" height="81" as="geometry" />
        </mxCell>
        <mxCell id="138oghYN7yinBcC0jpWZ-133" value="&amp;lt;&amp;lt;extend&amp;gt;&amp;gt;" style="html=1;verticalAlign=bottom;labelBackgroundColor=none;endArrow=open;endFill=0;dashed=1;rounded=0;entryX=0.715;entryY=0.968;entryDx=0;entryDy=0;entryPerimeter=0;exitX=0.449;exitY=0.055;exitDx=0;exitDy=0;exitPerimeter=0;" edge="1" parent="1" source="138oghYN7yinBcC0jpWZ-131" target="138oghYN7yinBcC0jpWZ-106">
          <mxGeometry width="160" relative="1" as="geometry">
            <mxPoint x="562" y="2337" as="sourcePoint" />
            <mxPoint x="722" y="2337" as="targetPoint" />
          </mxGeometry>
        </mxCell>
        <mxCell id="138oghYN7yinBcC0jpWZ-134" value="&amp;lt;&amp;lt;extend&amp;gt;&amp;gt;" style="html=1;verticalAlign=bottom;labelBackgroundColor=none;endArrow=open;endFill=0;dashed=1;rounded=0;entryX=0;entryY=1;entryDx=0;entryDy=0;exitX=0.5;exitY=0;exitDx=0;exitDy=0;" edge="1" parent="1" source="138oghYN7yinBcC0jpWZ-132" target="138oghYN7yinBcC0jpWZ-106">
          <mxGeometry width="160" relative="1" as="geometry">
            <mxPoint x="572" y="2347" as="sourcePoint" />
            <mxPoint x="732" y="2347" as="targetPoint" />
          </mxGeometry>
        </mxCell>
        <mxCell id="138oghYN7yinBcC0jpWZ-137" value="Lá»c ÄÆ¡n hÃ ng" style="ellipse;whiteSpace=wrap;html=1;fontSize=18;fillColor=#dae8fc;strokeColor=#6c8ebf;" vertex="1" parent="1">
          <mxGeometry x="1710" y="2472" width="277" height="106" as="geometry" />
        </mxCell>
        <mxCell id="138oghYN7yinBcC0jpWZ-138" value="TÃ¬m kiáº¿m ÄÆ¡n hÃ ng" style="ellipse;whiteSpace=wrap;html=1;fontSize=18;fillColor=#dae8fc;strokeColor=#6c8ebf;" vertex="1" parent="1">
          <mxGeometry x="1641" y="1912" width="277" height="106" as="geometry" />
        </mxCell>
        <mxCell id="138oghYN7yinBcC0jpWZ-139" value="Gá»­i thÃ´ng bÃ¡o&amp;nbsp;" style="ellipse;whiteSpace=wrap;html=1;fontSize=18;fillColor=#dae8fc;strokeColor=#6c8ebf;" vertex="1" parent="1">
          <mxGeometry x="1562" y="2285" width="277" height="106" as="geometry" />
        </mxCell>
        <mxCell id="138oghYN7yinBcC0jpWZ-140" value="&amp;lt;&amp;lt;extend&amp;gt;&amp;gt;" style="html=1;verticalAlign=bottom;labelBackgroundColor=none;endArrow=open;endFill=0;dashed=1;rounded=0;" edge="1" parent="1">
          <mxGeometry width="160" relative="1" as="geometry">
            <mxPoint x="1327" y="2152" as="sourcePoint" />
            <mxPoint x="1487" y="2152" as="targetPoint" />
          </mxGeometry>
        </mxCell>
        <mxCell id="138oghYN7yinBcC0jpWZ-141" value="&amp;lt;&amp;lt;extend&amp;gt;&amp;gt;" style="html=1;verticalAlign=bottom;labelBackgroundColor=none;endArrow=open;endFill=0;dashed=1;rounded=0;exitX=0.899;exitY=0.154;exitDx=0;exitDy=0;exitPerimeter=0;fontSize=18;" edge="1" parent="1" source="138oghYN7yinBcC0jpWZ-137" target="138oghYN7yinBcC0jpWZ-116">
          <mxGeometry width="160" relative="1" as="geometry">
            <mxPoint x="1337" y="2162" as="sourcePoint" />
            <mxPoint x="1497" y="2162" as="targetPoint" />
          </mxGeometry>
        </mxCell>
        <mxCell id="138oghYN7yinBcC0jpWZ-142" value="&amp;lt;&amp;lt;extend&amp;gt;&amp;gt;" style="html=1;verticalAlign=bottom;labelBackgroundColor=none;endArrow=open;endFill=0;dashed=1;rounded=0;entryX=0;entryY=0.5;entryDx=0;entryDy=0;exitX=0.788;exitY=0.885;exitDx=0;exitDy=0;exitPerimeter=0;fontSize=18;" edge="1" parent="1" source="138oghYN7yinBcC0jpWZ-138" target="138oghYN7yinBcC0jpWZ-116">
          <mxGeometry width="160" relative="1" as="geometry">
            <mxPoint x="1347" y="2172" as="sourcePoint" />
            <mxPoint x="1507" y="2172" as="targetPoint" />
          </mxGeometry>
        </mxCell>
        <mxCell id="138oghYN7yinBcC0jpWZ-143" value="&amp;lt;&amp;lt;extend&amp;gt;&amp;gt;" style="html=1;verticalAlign=bottom;labelBackgroundColor=none;endArrow=open;endFill=0;dashed=1;rounded=0;fontSize=18;" edge="1" parent="1" source="138oghYN7yinBcC0jpWZ-139" target="138oghYN7yinBcC0jpWZ-116">
          <mxGeometry width="160" relative="1" as="geometry">
            <mxPoint x="1357" y="2182" as="sourcePoint" />
            <mxPoint x="1517" y="2182" as="targetPoint" />
          </mxGeometry>
        </mxCell>
        <mxCell id="138oghYN7yinBcC0jpWZ-144" value="ÄÄng nháº­p" style="ellipse;whiteSpace=wrap;html=1;fontSize=18;fillColor=#dae8fc;strokeColor=#6c8ebf;" vertex="1" parent="1">
          <mxGeometry x="2084" y="1865" width="277" height="106" as="geometry" />
        </mxCell>
        <mxCell id="138oghYN7yinBcC0jpWZ-145" value="&amp;lt;&amp;lt;include&amp;gt;&amp;gt;" style="html=1;verticalAlign=bottom;labelBackgroundColor=none;endArrow=open;endFill=0;dashed=1;rounded=0;" edge="1" parent="1">
          <mxGeometry width="160" relative="1" as="geometry">
            <mxPoint x="1398" y="2049" as="sourcePoint" />
            <mxPoint x="1558" y="2049" as="targetPoint" />
          </mxGeometry>
        </mxCell>
        <mxCell id="138oghYN7yinBcC0jpWZ-146" value="&amp;lt;&amp;lt;include&amp;gt;&amp;gt;" style="html=1;verticalAlign=bottom;labelBackgroundColor=none;endArrow=open;endFill=0;dashed=1;rounded=0;fontSize=18;" edge="1" parent="1" source="138oghYN7yinBcC0jpWZ-116" target="138oghYN7yinBcC0jpWZ-144">
          <mxGeometry width="160" relative="1" as="geometry">
            <mxPoint x="2108" y="2013" as="sourcePoint" />
            <mxPoint x="1568" y="2059" as="targetPoint" />
          </mxGeometry>
        </mxCell>
        <mxCell id="138oghYN7yinBcC0jpWZ-147" value="Cáº­p nháº­t ÄÆ¡n&amp;nbsp; hÃ ng" style="ellipse;whiteSpace=wrap;html=1;fontSize=18;fillColor=#dae8fc;strokeColor=#6c8ebf;" vertex="1" parent="1">
          <mxGeometry x="2074" y="2492" width="277" height="106" as="geometry" />
        </mxCell>
        <mxCell id="138oghYN7yinBcC0jpWZ-148" value="&amp;lt;&amp;lt;extend&amp;gt;&amp;gt;" style="html=1;verticalAlign=bottom;labelBackgroundColor=none;endArrow=open;endFill=0;dashed=1;rounded=0;fontSize=18;entryX=0.5;entryY=1;entryDx=0;entryDy=0;" edge="1" parent="1" source="138oghYN7yinBcC0jpWZ-147" target="138oghYN7yinBcC0jpWZ-116">
          <mxGeometry width="160" relative="1" as="geometry">
            <mxPoint x="1969" y="2498" as="sourcePoint" />
            <mxPoint x="2115" y="2286" as="targetPoint" />
          </mxGeometry>
        </mxCell>
      </root>
    </mxGraphModel>
  </diagram>
</mxfile>
